<mxfile host="app.diagrams.net" agent="Mozilla/5.0 (Windows NT 10.0; Win64; x64) AppleWebKit/537.36 (KHTML, like Gecko) Chrome/134.0.0.0 Safari/537.36" version="26.1.3">
  <diagram name="PÃ¡gina-1" id="O-JrP3M6-fUGxqNiXoyq">
    <mxGraphModel dx="960" dy="493" grid="1" gridSize="10" guides="1" tooltips="1" connect="1" arrows="1" fold="1" page="1" pageScale="1" pageWidth="827" pageHeight="1169" math="0" shadow="0">
      <root>
        <mxCell id="0" />
        <mxCell id="1" parent="0" />
        <mxCell id="G0Jg8NX9_WpLnd-BKgSH-25" value="Scheduler" style="rounded=0;whiteSpace=wrap;html=1;dashed=1;" vertex="1" parent="1">
          <mxGeometry x="10" y="630" width="120" height="40" as="geometry" />
        </mxCell>
        <mxCell id="G0Jg8NX9_WpLnd-BKgSH-37" style="edgeStyle=orthogonalEdgeStyle;rounded=0;orthogonalLoop=1;jettySize=auto;html=1;entryX=0;entryY=0.5;entryDx=0;entryDy=0;jumpStyle=arc;" edge="1" parent="1" source="G0Jg8NX9_WpLnd-BKgSH-1" target="G0Jg8NX9_WpLnd-BKgSH-15">
          <mxGeometry relative="1" as="geometry" />
        </mxCell>
        <mxCell id="G0Jg8NX9_WpLnd-BKgSH-66" style="edgeStyle=orthogonalEdgeStyle;rounded=0;orthogonalLoop=1;jettySize=auto;html=1;" edge="1" parent="1" source="G0Jg8NX9_WpLnd-BKgSH-1" target="G0Jg8NX9_WpLnd-BKgSH-21">
          <mxGeometry relative="1" as="geometry" />
        </mxCell>
        <mxCell id="G0Jg8NX9_WpLnd-BKgSH-1" value="DB1&lt;div&gt;(Short Term Memory)&lt;/div&gt;" style="shape=cylinder;whiteSpace=wrap;html=1;boundedLbl=1;backgroundOutline=1;" vertex="1" parent="1">
          <mxGeometry y="760" width="120" height="80" as="geometry" />
        </mxCell>
        <mxCell id="G0Jg8NX9_WpLnd-BKgSH-42" style="edgeStyle=orthogonalEdgeStyle;rounded=0;orthogonalLoop=1;jettySize=auto;html=1;entryX=0;entryY=0.5;entryDx=0;entryDy=0;strokeColor=default;jumpStyle=arc;" edge="1" parent="1" source="G0Jg8NX9_WpLnd-BKgSH-2" target="G0Jg8NX9_WpLnd-BKgSH-16">
          <mxGeometry relative="1" as="geometry" />
        </mxCell>
        <mxCell id="G0Jg8NX9_WpLnd-BKgSH-44" style="edgeStyle=orthogonalEdgeStyle;rounded=0;orthogonalLoop=1;jettySize=auto;html=1;entryX=0;entryY=0.5;entryDx=0;entryDy=0;" edge="1" parent="1" source="G0Jg8NX9_WpLnd-BKgSH-2" target="G0Jg8NX9_WpLnd-BKgSH-17">
          <mxGeometry relative="1" as="geometry" />
        </mxCell>
        <mxCell id="G0Jg8NX9_WpLnd-BKgSH-53" style="edgeStyle=orthogonalEdgeStyle;rounded=0;orthogonalLoop=1;jettySize=auto;html=1;entryX=0.5;entryY=0;entryDx=0;entryDy=0;jumpStyle=arc;" edge="1" parent="1" source="G0Jg8NX9_WpLnd-BKgSH-2" target="G0Jg8NX9_WpLnd-BKgSH-22">
          <mxGeometry relative="1" as="geometry">
            <Array as="points">
              <mxPoint x="300" y="800" />
              <mxPoint x="300" y="500" />
              <mxPoint x="540" y="500" />
            </Array>
          </mxGeometry>
        </mxCell>
        <mxCell id="G0Jg8NX9_WpLnd-BKgSH-71" style="edgeStyle=orthogonalEdgeStyle;rounded=0;orthogonalLoop=1;jettySize=auto;html=1;entryX=0;entryY=0.5;entryDx=0;entryDy=0;" edge="1" parent="1" source="G0Jg8NX9_WpLnd-BKgSH-2" target="G0Jg8NX9_WpLnd-BKgSH-26">
          <mxGeometry relative="1" as="geometry">
            <Array as="points">
              <mxPoint x="300" y="800" />
              <mxPoint x="300" y="880" />
              <mxPoint x="630" y="880" />
              <mxPoint x="630" y="700" />
            </Array>
          </mxGeometry>
        </mxCell>
        <mxCell id="G0Jg8NX9_WpLnd-BKgSH-2" value="DB2&lt;div&gt;(Long Term Memory)&lt;/div&gt;" style="shape=cylinder;whiteSpace=wrap;html=1;boundedLbl=1;backgroundOutline=1;" vertex="1" parent="1">
          <mxGeometry x="160" y="760" width="120" height="80" as="geometry" />
        </mxCell>
        <mxCell id="G0Jg8NX9_WpLnd-BKgSH-32" style="edgeStyle=orthogonalEdgeStyle;rounded=0;orthogonalLoop=1;jettySize=auto;html=1;jumpStyle=arc;" edge="1" parent="1" source="G0Jg8NX9_WpLnd-BKgSH-5" target="G0Jg8NX9_WpLnd-BKgSH-10">
          <mxGeometry relative="1" as="geometry" />
        </mxCell>
        <mxCell id="G0Jg8NX9_WpLnd-BKgSH-54" style="edgeStyle=orthogonalEdgeStyle;rounded=0;orthogonalLoop=1;jettySize=auto;html=1;entryX=0.5;entryY=0;entryDx=0;entryDy=0;" edge="1" parent="1" source="G0Jg8NX9_WpLnd-BKgSH-5" target="G0Jg8NX9_WpLnd-BKgSH-22">
          <mxGeometry relative="1" as="geometry" />
        </mxCell>
        <mxCell id="G0Jg8NX9_WpLnd-BKgSH-56" style="edgeStyle=orthogonalEdgeStyle;rounded=0;orthogonalLoop=1;jettySize=auto;html=1;jumpStyle=arc;" edge="1" parent="1" source="G0Jg8NX9_WpLnd-BKgSH-5" target="G0Jg8NX9_WpLnd-BKgSH-23">
          <mxGeometry relative="1" as="geometry" />
        </mxCell>
        <mxCell id="G0Jg8NX9_WpLnd-BKgSH-58" style="edgeStyle=orthogonalEdgeStyle;rounded=0;orthogonalLoop=1;jettySize=auto;html=1;entryX=0;entryY=0.5;entryDx=0;entryDy=0;flowAnimation=0;curved=0;jumpStyle=arc;" edge="1" parent="1" source="G0Jg8NX9_WpLnd-BKgSH-5" target="G0Jg8NX9_WpLnd-BKgSH-24">
          <mxGeometry relative="1" as="geometry">
            <Array as="points">
              <mxPoint x="470" y="439" />
              <mxPoint x="470" y="700" />
            </Array>
          </mxGeometry>
        </mxCell>
        <mxCell id="G0Jg8NX9_WpLnd-BKgSH-5" value="User" style="sketch=0;outlineConnect=0;fontColor=#232F3E;gradientColor=none;fillColor=#232F3D;strokeColor=none;dashed=0;verticalLabelPosition=bottom;verticalAlign=top;align=center;html=1;fontSize=12;fontStyle=0;aspect=fixed;pointerEvents=1;shape=mxgraph.aws4.user;" vertex="1" parent="1">
          <mxGeometry x="340" y="400" width="78" height="78" as="geometry" />
        </mxCell>
        <mxCell id="G0Jg8NX9_WpLnd-BKgSH-61" style="edgeStyle=orthogonalEdgeStyle;rounded=0;orthogonalLoop=1;jettySize=auto;html=1;" edge="1" parent="1" source="G0Jg8NX9_WpLnd-BKgSH-7" target="G0Jg8NX9_WpLnd-BKgSH-21">
          <mxGeometry relative="1" as="geometry">
            <mxPoint x="70" y="1010" as="targetPoint" />
          </mxGeometry>
        </mxCell>
        <mxCell id="G0Jg8NX9_WpLnd-BKgSH-63" style="edgeStyle=orthogonalEdgeStyle;rounded=0;orthogonalLoop=1;jettySize=auto;html=1;" edge="1" parent="1" source="G0Jg8NX9_WpLnd-BKgSH-7" target="G0Jg8NX9_WpLnd-BKgSH-14">
          <mxGeometry relative="1" as="geometry">
            <Array as="points">
              <mxPoint x="381" y="900" />
              <mxPoint x="320" y="900" />
              <mxPoint x="320" y="800" />
            </Array>
          </mxGeometry>
        </mxCell>
        <mxCell id="G0Jg8NX9_WpLnd-BKgSH-64" style="edgeStyle=orthogonalEdgeStyle;rounded=0;orthogonalLoop=1;jettySize=auto;html=1;entryX=0.5;entryY=1;entryDx=0;entryDy=0;" edge="1" parent="1" source="G0Jg8NX9_WpLnd-BKgSH-7" target="G0Jg8NX9_WpLnd-BKgSH-27">
          <mxGeometry relative="1" as="geometry" />
        </mxCell>
        <mxCell id="G0Jg8NX9_WpLnd-BKgSH-7" value="Admin" style="sketch=0;outlineConnect=0;fontColor=#232F3E;gradientColor=none;fillColor=#232F3D;strokeColor=none;dashed=0;verticalLabelPosition=bottom;verticalAlign=top;align=center;html=1;fontSize=12;fontStyle=0;aspect=fixed;pointerEvents=1;shape=mxgraph.aws4.user;" vertex="1" parent="1">
          <mxGeometry x="342" y="960" width="78" height="78" as="geometry" />
        </mxCell>
        <mxCell id="G0Jg8NX9_WpLnd-BKgSH-49" style="edgeStyle=orthogonalEdgeStyle;rounded=0;orthogonalLoop=1;jettySize=auto;html=1;entryX=0.682;entryY=1.064;entryDx=0;entryDy=0;entryPerimeter=0;exitX=0.625;exitY=0.2;exitDx=0;exitDy=0;exitPerimeter=0;" edge="1" parent="1" source="G0Jg8NX9_WpLnd-BKgSH-8" target="G0Jg8NX9_WpLnd-BKgSH-16">
          <mxGeometry relative="1" as="geometry">
            <Array as="points">
              <mxPoint x="402" y="608" />
            </Array>
          </mxGeometry>
        </mxCell>
        <mxCell id="G0Jg8NX9_WpLnd-BKgSH-8" value="OSRM" style="ellipse;shape=cloud;whiteSpace=wrap;html=1;" vertex="1" parent="1">
          <mxGeometry x="312.5" y="600" width="127.5" height="40" as="geometry" />
        </mxCell>
        <mxCell id="G0Jg8NX9_WpLnd-BKgSH-34" style="edgeStyle=orthogonalEdgeStyle;rounded=0;orthogonalLoop=1;jettySize=auto;html=1;jumpStyle=arc;" edge="1" parent="1" source="G0Jg8NX9_WpLnd-BKgSH-10" target="G0Jg8NX9_WpLnd-BKgSH-11">
          <mxGeometry relative="1" as="geometry" />
        </mxCell>
        <mxCell id="G0Jg8NX9_WpLnd-BKgSH-10" value="SearchQueue" style="rounded=0;whiteSpace=wrap;html=1;" vertex="1" parent="1">
          <mxGeometry y="520" width="120" height="40" as="geometry" />
        </mxCell>
        <mxCell id="G0Jg8NX9_WpLnd-BKgSH-35" style="edgeStyle=orthogonalEdgeStyle;rounded=0;orthogonalLoop=1;jettySize=auto;html=1;jumpStyle=arc;" edge="1" parent="1" source="G0Jg8NX9_WpLnd-BKgSH-11" target="G0Jg8NX9_WpLnd-BKgSH-12">
          <mxGeometry relative="1" as="geometry" />
        </mxCell>
        <mxCell id="G0Jg8NX9_WpLnd-BKgSH-11" value="SearchManager" style="rounded=0;whiteSpace=wrap;html=1;" vertex="1" parent="1">
          <mxGeometry y="600" width="120" height="40" as="geometry" />
        </mxCell>
        <mxCell id="G0Jg8NX9_WpLnd-BKgSH-36" style="edgeStyle=orthogonalEdgeStyle;rounded=0;orthogonalLoop=1;jettySize=auto;html=1;jumpStyle=arc;" edge="1" parent="1" source="G0Jg8NX9_WpLnd-BKgSH-12" target="G0Jg8NX9_WpLnd-BKgSH-1">
          <mxGeometry relative="1" as="geometry" />
        </mxCell>
        <mxCell id="G0Jg8NX9_WpLnd-BKgSH-12" value="DownloadManager" style="rounded=0;whiteSpace=wrap;html=1;" vertex="1" parent="1">
          <mxGeometry y="680" width="120" height="40" as="geometry" />
        </mxCell>
        <mxCell id="G0Jg8NX9_WpLnd-BKgSH-52" style="edgeStyle=orthogonalEdgeStyle;rounded=0;orthogonalLoop=1;jettySize=auto;html=1;entryX=0.674;entryY=1.006;entryDx=0;entryDy=0;entryPerimeter=0;" edge="1" parent="1" source="G0Jg8NX9_WpLnd-BKgSH-14" target="G0Jg8NX9_WpLnd-BKgSH-17">
          <mxGeometry relative="1" as="geometry">
            <Array as="points">
              <mxPoint x="401" y="750" />
              <mxPoint x="401" y="750" />
            </Array>
          </mxGeometry>
        </mxCell>
        <mxCell id="G0Jg8NX9_WpLnd-BKgSH-14" value="AI Bucket" style="sketch=0;outlineConnect=0;fontColor=#232F3E;gradientColor=none;strokeColor=#232F3E;fillColor=#ffffff;dashed=0;verticalLabelPosition=bottom;verticalAlign=top;align=center;html=1;fontSize=12;fontStyle=0;aspect=fixed;shape=mxgraph.aws4.resourceIcon;resIcon=mxgraph.aws4.bucket;" vertex="1" parent="1">
          <mxGeometry x="340" y="760" width="80" height="80" as="geometry" />
        </mxCell>
        <mxCell id="G0Jg8NX9_WpLnd-BKgSH-39" style="edgeStyle=orthogonalEdgeStyle;rounded=0;orthogonalLoop=1;jettySize=auto;html=1;entryX=0.5;entryY=0;entryDx=0;entryDy=0;jumpStyle=arc;" edge="1" parent="1" source="G0Jg8NX9_WpLnd-BKgSH-15" target="G0Jg8NX9_WpLnd-BKgSH-2">
          <mxGeometry relative="1" as="geometry" />
        </mxCell>
        <mxCell id="G0Jg8NX9_WpLnd-BKgSH-15" value="DataProcessor" style="rounded=0;whiteSpace=wrap;html=1;" vertex="1" parent="1">
          <mxGeometry x="160" y="520" width="120" height="40" as="geometry" />
        </mxCell>
        <mxCell id="G0Jg8NX9_WpLnd-BKgSH-45" style="edgeStyle=orthogonalEdgeStyle;rounded=0;orthogonalLoop=1;jettySize=auto;html=1;entryX=0.5;entryY=1;entryDx=0;entryDy=0;jumpStyle=arc;" edge="1" parent="1" source="G0Jg8NX9_WpLnd-BKgSH-16" target="G0Jg8NX9_WpLnd-BKgSH-2">
          <mxGeometry relative="1" as="geometry">
            <Array as="points">
              <mxPoint x="460" y="540" />
              <mxPoint x="460" y="860" />
              <mxPoint x="220" y="860" />
            </Array>
          </mxGeometry>
        </mxCell>
        <mxCell id="G0Jg8NX9_WpLnd-BKgSH-16" value="AnalysisManager" style="rounded=0;whiteSpace=wrap;html=1;" vertex="1" parent="1">
          <mxGeometry x="320" y="520" width="120" height="40" as="geometry" />
        </mxCell>
        <mxCell id="G0Jg8NX9_WpLnd-BKgSH-47" style="edgeStyle=orthogonalEdgeStyle;rounded=0;orthogonalLoop=1;jettySize=auto;html=1;entryX=0.5;entryY=1;entryDx=0;entryDy=0;jumpStyle=arc;" edge="1" parent="1" source="G0Jg8NX9_WpLnd-BKgSH-17" target="G0Jg8NX9_WpLnd-BKgSH-2">
          <mxGeometry relative="1" as="geometry">
            <Array as="points">
              <mxPoint x="460" y="700" />
              <mxPoint x="460" y="860" />
              <mxPoint x="220" y="860" />
            </Array>
          </mxGeometry>
        </mxCell>
        <mxCell id="G0Jg8NX9_WpLnd-BKgSH-51" style="edgeStyle=orthogonalEdgeStyle;rounded=0;orthogonalLoop=1;jettySize=auto;html=1;" edge="1" parent="1" source="G0Jg8NX9_WpLnd-BKgSH-17" target="G0Jg8NX9_WpLnd-BKgSH-14">
          <mxGeometry relative="1" as="geometry">
            <Array as="points">
              <mxPoint x="360" y="740" />
              <mxPoint x="360" y="740" />
            </Array>
          </mxGeometry>
        </mxCell>
        <mxCell id="G0Jg8NX9_WpLnd-BKgSH-17" value="Advanced&lt;div&gt;Analysis&lt;/div&gt;&lt;div&gt;Manager&lt;/div&gt;" style="rounded=0;whiteSpace=wrap;html=1;" vertex="1" parent="1">
          <mxGeometry x="320" y="680" width="120" height="40" as="geometry" />
        </mxCell>
        <mxCell id="G0Jg8NX9_WpLnd-BKgSH-68" style="edgeStyle=orthogonalEdgeStyle;rounded=0;orthogonalLoop=1;jettySize=auto;html=1;" edge="1" parent="1" source="G0Jg8NX9_WpLnd-BKgSH-21" target="G0Jg8NX9_WpLnd-BKgSH-1">
          <mxGeometry relative="1" as="geometry" />
        </mxCell>
        <mxCell id="G0Jg8NX9_WpLnd-BKgSH-21" value="MemoryManager" style="rounded=0;whiteSpace=wrap;html=1;" vertex="1" parent="1">
          <mxGeometry y="880" width="120" height="40" as="geometry" />
        </mxCell>
        <mxCell id="G0Jg8NX9_WpLnd-BKgSH-60" style="edgeStyle=orthogonalEdgeStyle;rounded=0;orthogonalLoop=1;jettySize=auto;html=1;jumpStyle=arc;" edge="1" parent="1" source="G0Jg8NX9_WpLnd-BKgSH-22" target="G0Jg8NX9_WpLnd-BKgSH-24">
          <mxGeometry relative="1" as="geometry">
            <mxPoint x="530" y="650" as="targetPoint" />
            <Array as="points">
              <mxPoint x="610" y="540" />
              <mxPoint x="610" y="700" />
            </Array>
          </mxGeometry>
        </mxCell>
        <mxCell id="G0Jg8NX9_WpLnd-BKgSH-22" value="SelectionAssistant" style="rounded=0;whiteSpace=wrap;html=1;" vertex="1" parent="1">
          <mxGeometry x="480" y="520" width="120" height="40" as="geometry" />
        </mxCell>
        <mxCell id="G0Jg8NX9_WpLnd-BKgSH-55" style="edgeStyle=orthogonalEdgeStyle;rounded=0;orthogonalLoop=1;jettySize=auto;html=1;jumpStyle=arc;" edge="1" parent="1" source="G0Jg8NX9_WpLnd-BKgSH-23" target="G0Jg8NX9_WpLnd-BKgSH-5">
          <mxGeometry relative="1" as="geometry">
            <Array as="points">
              <mxPoint x="620" y="620" />
              <mxPoint x="620" y="430" />
            </Array>
          </mxGeometry>
        </mxCell>
        <mxCell id="G0Jg8NX9_WpLnd-BKgSH-23" value="Visualization" style="rounded=0;whiteSpace=wrap;html=1;" vertex="1" parent="1">
          <mxGeometry x="480" y="600" width="120" height="40" as="geometry" />
        </mxCell>
        <mxCell id="G0Jg8NX9_WpLnd-BKgSH-59" style="edgeStyle=orthogonalEdgeStyle;rounded=0;orthogonalLoop=1;jettySize=auto;html=1;" edge="1" parent="1" source="G0Jg8NX9_WpLnd-BKgSH-24" target="G0Jg8NX9_WpLnd-BKgSH-28">
          <mxGeometry relative="1" as="geometry" />
        </mxCell>
        <mxCell id="G0Jg8NX9_WpLnd-BKgSH-24" value="Exporter" style="rounded=0;whiteSpace=wrap;html=1;" vertex="1" parent="1">
          <mxGeometry x="480" y="680" width="120" height="40" as="geometry" />
        </mxCell>
        <mxCell id="G0Jg8NX9_WpLnd-BKgSH-69" style="edgeStyle=orthogonalEdgeStyle;rounded=0;orthogonalLoop=1;jettySize=auto;html=1;" edge="1" parent="1" source="G0Jg8NX9_WpLnd-BKgSH-26" target="G0Jg8NX9_WpLnd-BKgSH-5">
          <mxGeometry relative="1" as="geometry">
            <Array as="points">
              <mxPoint x="700" y="430" />
            </Array>
          </mxGeometry>
        </mxCell>
        <mxCell id="G0Jg8NX9_WpLnd-BKgSH-70" style="edgeStyle=orthogonalEdgeStyle;rounded=0;orthogonalLoop=1;jettySize=auto;html=1;" edge="1" parent="1" source="G0Jg8NX9_WpLnd-BKgSH-26" target="G0Jg8NX9_WpLnd-BKgSH-7">
          <mxGeometry relative="1" as="geometry">
            <Array as="points">
              <mxPoint x="700" y="1000" />
            </Array>
          </mxGeometry>
        </mxCell>
        <mxCell id="G0Jg8NX9_WpLnd-BKgSH-26" value="Notifier" style="rounded=0;whiteSpace=wrap;html=1;dashed=1;" vertex="1" parent="1">
          <mxGeometry x="640" y="680" width="120" height="40" as="geometry" />
        </mxCell>
        <mxCell id="G0Jg8NX9_WpLnd-BKgSH-65" style="edgeStyle=orthogonalEdgeStyle;rounded=0;orthogonalLoop=1;jettySize=auto;html=1;" edge="1" parent="1" source="G0Jg8NX9_WpLnd-BKgSH-27" target="G0Jg8NX9_WpLnd-BKgSH-2">
          <mxGeometry relative="1" as="geometry" />
        </mxCell>
        <mxCell id="G0Jg8NX9_WpLnd-BKgSH-27" value="Automation Manager" style="rounded=0;whiteSpace=wrap;html=1;dashed=1;" vertex="1" parent="1">
          <mxGeometry x="160" y="880" width="120" height="40" as="geometry" />
        </mxCell>
        <mxCell id="G0Jg8NX9_WpLnd-BKgSH-72" style="edgeStyle=orthogonalEdgeStyle;rounded=0;orthogonalLoop=1;jettySize=auto;html=1;" edge="1" parent="1" source="G0Jg8NX9_WpLnd-BKgSH-28" target="G0Jg8NX9_WpLnd-BKgSH-5">
          <mxGeometry relative="1" as="geometry">
            <Array as="points">
              <mxPoint x="620" y="800" />
              <mxPoint x="620" y="430" />
            </Array>
          </mxGeometry>
        </mxCell>
        <mxCell id="G0Jg8NX9_WpLnd-BKgSH-28" value="Reports" style="sketch=0;outlineConnect=0;fontColor=#232F3E;gradientColor=none;fillColor=#232F3D;strokeColor=none;dashed=0;verticalLabelPosition=bottom;verticalAlign=top;align=center;html=1;fontSize=12;fontStyle=0;aspect=fixed;pointerEvents=1;shape=mxgraph.aws4.folder;" vertex="1" parent="1">
          <mxGeometry x="496.06" y="760" width="87.89" height="80" as="geometry" />
        </mxCell>
        <mxCell id="G0Jg8NX9_WpLnd-BKgSH-48" style="edgeStyle=orthogonalEdgeStyle;rounded=0;orthogonalLoop=1;jettySize=auto;html=1;entryX=0.4;entryY=0.1;entryDx=0;entryDy=0;entryPerimeter=0;" edge="1" parent="1" source="G0Jg8NX9_WpLnd-BKgSH-16" target="G0Jg8NX9_WpLnd-BKgSH-8">
          <mxGeometry relative="1" as="geometry">
            <Array as="points">
              <mxPoint x="364" y="580" />
              <mxPoint x="364" y="580" />
            </Array>
          </mxGeometry>
        </mxCell>
      </root>
    </mxGraphModel>
  </diagram>
</mxfile>
